<svg version="1.0" viewBox="0 0 128 128" xmlns="http://www.w3.org/2000/svg">
 <rect width="128" height="128" rx="14.173" ry="14.173" style="fill:#204a87"/>
 <g transform="matrix(1.5332 0 0 1.3897 -16.437 -7.089)" style="fill:#fff;shape-inside:url(#rect290);stroke-width:.68507;white-space:pre" aria-label="C">
  <path d="m66.911 21.73q-1.824 0-3.072-1.152-1.152-1.248-1.152-3.072 0-4.128 4.224-4.128 1.728 0 2.88 1.248 1.248 1.152 1.248 2.88 0 4.224-4.128 4.224zm9.6 9.6q-1.824 0-3.072-1.152-1.152-1.248-1.152-3.072 0-4.128 4.224-4.128 1.728 0 2.88 1.248 1.248 1.152 1.248 2.88 0 4.224-4.128 4.224zm-19.2-9.6q-1.824 0-3.072-1.152-1.152-1.248-1.152-3.072 0-4.128 4.224-4.128 1.728 0 2.88 1.248 1.248 1.152 1.248 2.88 0 4.224-4.128 4.224zm9.6 9.6q-1.824 0-3.072-1.152-1.152-1.248-1.152-3.072 0-4.128 4.224-4.128 1.728 0 2.88 1.248 1.248 1.152 1.248 2.88 0 4.224-4.128 4.224zm9.6 9.6q-1.824 0-3.072-1.152-1.152-1.248-1.152-3.072 0-4.128 4.224-4.128 1.728 0 2.88 1.248 1.248 1.152 1.248 2.88 0 4.224-4.128 4.224zm-28.8-19.2q-1.824 0-3.072-1.152-1.152-1.248-1.152-3.072 0-4.128 4.224-4.128 1.728 0 2.88 1.248 1.248 1.152 1.248 2.88 0 4.224-4.128 4.224zm9.6 9.6q-1.824 0-3.072-1.152-1.152-1.248-1.152-3.072 0-4.128 4.224-4.128 1.728 0 2.88 1.248 1.248 1.152 1.248 2.88 0 4.224-4.128 4.224zm9.6 9.6q-1.824 0-3.072-1.152-1.152-1.248-1.152-3.072 0-4.128 4.224-4.128 1.728 0 2.88 1.248 1.248 1.152 1.248 2.88 0 4.224-4.128 4.224zm-28.8-19.2q-1.824 0-3.072-1.152-1.152-1.248-1.152-3.072 0-4.128 4.224-4.128 1.728 0 2.88 1.248 1.248 1.152 1.248 2.88 0 4.224-4.128 4.224zm9.6 9.6q-1.824 0-3.072-1.152-1.152-1.248-1.152-3.072 0-4.128 4.224-4.128 1.728 0 2.88 1.248 1.248 1.152 1.248 2.88 0 4.224-4.128 4.224zm-9.6 0q-1.824 0-3.072-1.152-1.152-1.248-1.152-3.072 0-4.128 4.224-4.128 1.728 0 2.88 1.248 1.248 1.152 1.248 2.88 0 4.224-4.128 4.224zm38.4 38.4q-1.824 0-3.072-1.152-1.152-1.248-1.152-3.072 0-4.128 4.224-4.128 1.728 0 2.88 1.248 1.248 1.152 1.248 2.88 0 4.224-4.128 4.224zm-48-38.4q-1.824 0-3.072-1.152-1.152-1.248-1.152-3.072 0-4.128 4.224-4.128 1.728 0 2.88 1.248 1.248 1.152 1.248 2.88 0 4.224-4.128 4.224zm9.6 9.6q-1.824 0-3.072-1.152-1.152-1.248-1.152-3.072 0-4.128 4.224-4.128 1.728 0 2.88 1.248 1.248 1.152 1.248 2.88 0 4.224-4.128 4.224zm28.8 28.8q-1.824 0-3.072-1.152-1.152-1.248-1.152-3.072 0-4.128 4.224-4.128 1.728 0 2.88 1.248 1.248 1.152 1.248 2.88 0 4.224-4.128 4.224zm9.6 9.6q-1.824 0-3.072-1.152-1.152-1.248-1.152-3.072 0-4.128 4.224-4.128 1.728 0 2.88 1.248 1.248 1.152 1.248 2.88 0 4.224-4.128 4.224zm-48-38.4q-1.824 0-3.072-1.152-1.152-1.248-1.152-3.072 0-4.128 4.224-4.128 1.728 0 2.88 1.248 1.248 1.152 1.248 2.88 0 4.224-4.128 4.224zm9.6 9.6q-1.824 0-3.072-1.152-1.152-1.248-1.152-3.072 0-4.128 4.224-4.128 1.728 0 2.88 1.248 1.248 1.152 1.248 2.88 0 4.224-4.128 4.224zm28.8 28.8q-1.824 0-3.072-1.152-1.152-1.248-1.152-3.072 0-4.128 4.224-4.128 1.728 0 2.88 1.248 1.248 1.152 1.248 2.88 0 4.224-4.128 4.224zm-38.4-28.8q-1.824 0-3.072-1.152-1.152-1.248-1.152-3.072 0-4.128 4.224-4.128 1.728 0 2.88 1.248 1.248 1.152 1.248 2.88 0 4.224-4.128 4.224zm9.6 9.6q-1.824 0-3.072-1.152-1.152-1.248-1.152-3.072 0-4.128 4.224-4.128 1.728 0 2.88 1.248 1.248 1.152 1.248 2.88 0 4.224-4.128 4.224zm19.2 19.2q-1.824 0-3.072-1.152-1.152-1.248-1.152-3.072 0-4.128 4.224-4.128 1.728 0 2.88 1.248 1.248 1.152 1.248 2.88 0 4.224-4.128 4.224zm9.6 9.6q-4.224 0-4.224-4.128 0-1.824 1.152-3.072 1.248-1.152 3.072-1.152 4.128 0 4.128 4.224 0 1.728-1.248 2.88-1.152 1.248-2.88 1.248zm-38.4-28.8q-1.824 0-3.072-1.152-1.152-1.248-1.152-3.072 0-4.128 4.224-4.128 1.728 0 2.88 1.248 1.248 1.152 1.248 2.88 0 4.224-4.128 4.224zm9.6 9.6q-1.824 0-3.072-1.152-1.152-1.248-1.152-3.072 0-4.128 4.224-4.128 1.728 0 2.88 1.248 1.248 1.152 1.248 2.88 0 4.224-4.128 4.224zm9.6 9.6q-1.824 0-3.072-1.152-1.152-1.248-1.152-3.072 0-4.128 4.224-4.128 1.728 0 2.88 1.248 1.248 1.152 1.248 2.88 0 4.224-4.128 4.224zm9.6 9.6q-4.224 0-4.224-4.128 0-1.824 1.152-3.072 1.248-1.152 3.072-1.152 4.128 0 4.128 4.224 0 1.728-1.248 2.88-1.152 1.248-2.88 1.248zm-28.8-19.2q-1.824 0-3.072-1.152-1.152-1.248-1.152-3.072 0-4.128 4.224-4.128 1.728 0 2.88 1.248 1.248 1.152 1.248 2.88 0 4.224-4.128 4.224zm9.6 9.6q-1.824 0-3.072-1.152-1.152-1.248-1.152-3.072 0-4.128 4.224-4.128 1.728 0 2.88 1.248 1.248 1.152 1.248 2.88 0 4.224-4.128 4.224zm9.6 9.6q-4.224 0-4.224-4.128 0-1.824 1.152-3.072 1.248-1.152 3.072-1.152 4.128 0 4.128 4.224 0 1.728-1.248 2.88-1.152 1.248-2.88 1.248zm-19.2-9.6q-1.824 0-3.072-1.152-1.152-1.248-1.152-3.072 0-4.128 4.224-4.128 1.728 0 2.88 1.248 1.248 1.152 1.248 2.88 0 4.224-4.128 4.224zm9.6 9.6q-4.224 0-4.224-4.128 0-1.824 1.152-3.072 1.248-1.152 3.072-1.152 4.128 0 4.128 4.224 0 1.728-1.248 2.88-1.152 1.248-2.88 1.248z" style="fill:#fff;stroke-width:.68507"/>
 </g>
</svg>
