<svg version="1.0" viewBox="0 0 128 128" xmlns="http://www.w3.org/2000/svg">
 <rect width="128" height="128" rx="14.173" ry="14.173" style="fill:#204a87"/>
 <path d="m20.793 11.512h44.93c13.359 1.05e-4 23.601 2.9767 30.727 8.9297 7.1718 5.9063 10.758 14.344 10.758 25.312-1e-4 11.016-3.586 19.5-10.758 25.453-7.1251 5.9063-17.367 8.8594-30.727 8.8594h-17.859v36.422h-27.07v-104.98m27.07 19.617v29.32h14.977c5.2499 5.6e-5 9.3046-1.2656 12.164-3.7969 2.8593-2.5781 4.289-6.2109 4.2891-10.898-7.2e-5 -4.6874-1.4298-8.2968-4.2891-10.828-2.8594-2.5312-6.9141-3.7968-12.164-3.7969h-14.977" style="fill:#fff"/>
</svg>
